<svg width="1440" height="900" viewBox="0 0 1440 900" fill="none" xmlns="http://www.w3.org/2000/svg">
<path d="M168 373.485C209.5 155.276 -137 -84.9935 -42 185.01L-200 960.97L11 1137.46L1620 1089.98L1653 -16.8932C1531.67 -28.7228 1296.4 -43.2701 1326 -6.82201C1363 38.7381 1352 255.988 1241.5 298.67C1143.57 336.499 1200 554.287 1020 657.396C840 760.506 745 669.865 635.5 697.201C526 724.537 435.791 863.809 304.5 770.577C162 669.386 126.5 591.694 168 373.485Z" fill="#817A74"/>
<path d="M173 390.908C234.5 179.092 -131 -70.606 -36 199.398L-189 981.751L22 1158.24L1631 1110.76L1664 3.88704C1542.67 -7.9426 1307.4 -22.4899 1337 13.9582C1374 59.5183 1354.99 268.165 1237.5 318.813C1148.5 357.179 1204 569.154 1024 672.263C844 775.373 743.5 690.008 634 717.344C524.5 744.68 448.923 881.761 315.5 791.357C173 694.804 111.5 602.724 173 390.908Z" fill="#978C83"/>
<path d="M175 397.464C249.5 189.806 -139.5 -59.096 -44.5 210.907L-187 1008.61L24 1185.09L1633 1137.61L1666 30.7436C1544.67 18.9139 1309.4 4.36668 1339 40.8148C1376 86.3749 1353.5 282.523 1242 344.389C1150.61 395.095 1206.5 585.939 1026.5 689.049C846.5 792.158 744.5 701.997 635 729.333C525.5 756.669 463.212 894.301 320.5 818.056C168.5 736.848 100.5 605.122 175 397.464Z" fill="#C0B2A7"/>
<path d="M172.5 439.667C270 184.447 -101 -40.872 -32.5 86.2167L-173 1033.63L38 1210.11L1647 1162.64L1680 55.7656C1558.67 43.936 1301.9 -0.983013 1331.5 35.4651C1368.5 81.0252 1367.5 307.545 1256 369.411C1164.61 420.117 1213.5 597.449 1033.5 700.559C853.5 803.668 747 710.15 637.5 737.486C528 764.822 463.299 923.166 319.5 831.606C187.5 747.557 75 694.887 172.5 439.667Z" fill="#D9CEC5"/>
<path d="M186.5 450.218C332 252.631 -120 -68.6878 -51.5 58.4009L-159 1044.18L52 1220.67L1661 1173.19L1694 66.3162C1572.67 54.4866 1273.4 -68.9481 1303 -32.5C1340 13.0601 1381.5 318.096 1270 379.962C1178.61 430.668 1225 609.438 1045 712.548C865 815.658 750 720.221 640.5 747.557C531 774.893 482 927.4 317 842.514C175.723 769.833 41 647.805 186.5 450.218Z" fill="#EFE9E3"/>
</svg>
